<?xml version="1.0" encoding="UTF-8"?>
<svg fill="currentColor" width="50px" height="50px" version="1.1" viewBox="0 0 700 550" xmlns="http://www.w3.org/2000/svg" xmlns:xlink="http://www.w3.org/1999/xlink">
 <g>
  <path d="m350.13 8.4844c-65.742 0-129.18 23.805-178.63 67.031-3.5312 3.082-3.8867 8.4414-0.80469 11.973 3.082 3.5312 8.4531 3.8711 11.973 0.80469 44.836-39.199 101.96-61.293 161.43-62.699l0.003906 33.816c0 4.6484 3.7461 8.4336 8.3945 8.4844 101.32 1.1055 188.08 74.215 206.3 173.83 0.74609 4.0977 4.3164 6.9609 8.3359 6.9609 0.50391 0 1.0195-0.046875 1.5352-0.13672 4.6133-0.84375 7.6641-5.2656 6.8203-9.8711-19.18-104.84-108.62-182.49-214.42-187.51v-25.438c150.4 6.3945 264.79 142.9 240.33 295.24h-36.246c-3.9531 0-7.3828 2.7305-8.2695 6.582-21.926 95.359-108.88 164.57-206.75 164.57-44.52 0-87.16-13.699-123.31-39.621-3.7773-2.7031-8.9805-1.8867-11.75 1.8203l-20.25 27.141c-106.15-82.027-129.57-229.98-58.461-339.7 2.5508-3.9336 1.4258-9.1875-2.5039-11.738-3.9258-2.5469-9.1875-1.4258-11.734 2.5078-117.41 181.15 15.184 418.98 228.02 418.98 50.18 0 99.207-13.801 141.77-39.906 3.9922-2.4531 5.2539-7.6758 2.8008-11.672-2.4531-4.0039-7.6797-5.25-11.668-2.7969-39.895 24.469-85.852 37.406-132.9 37.406-52.359 0-101.06-15.906-141.57-43.113l15.227-20.406c37.535 24.934 81.047 38.07 126.34 38.07 103.44 0 195.58-71.574 221.68-171.15h26.16c-8.1211 35.039-23.531 67.969-45.957 97.121-2.8516 3.7148-2.1641 9.043 1.5586 11.898 3.6992 2.8516 9.0312 2.1719 11.898-1.5508 136.1-176.96 10.23-436.93-215.34-436.93z"/>
  <path d="m276.82 62.945c-76.93 26.047-132.9 90.086-150.12 166.92-0.0625 0.27734-0.23047 0.5-0.26562 0.78906-0.019531 0.13672 0.039063 0.26172 0.027344 0.39844-14.125 64.617-0.47656 132.44 41.152 187.25 2.8164 3.7148 8.1367 4.4688 11.883 1.625 3.7383-2.832 4.4648-8.1562 1.625-11.891-35.246-46.418-50.766-105.71-39.387-166.88l25.16 3.2031c-22.43 115.66 66.605 222.31 183.25 222.31 69.984 0 133.53-38.707 165.84-101.02 2.1562-4.1602 0.53125-9.2812-3.6289-11.438-4.1523-2.1562-9.2891-0.53516-11.434 3.625-29.383 56.66-87.152 91.859-150.77 91.859-110.23 0-191.18-103.82-164.73-210.54 0.58203-2.3516 0.13281-4.8398-1.2344-6.8359-1.3672-2-3.5312-3.3203-5.9336-3.625l-32.715-4.1641c18.184-67.09 68.547-122.43 136.73-145.52 4.4414-1.5039 6.8203-6.3203 5.3203-10.758-1.5039-4.4414-6.3438-6.8203-10.758-5.3164z"/>
  <path d="m519.82 280c0 4.6836 3.7969 8.4844 8.4844 8.4844 4.6914 0 8.4844-3.8008 8.4844-8.4844 0-85.738-58.125-158.12-137.03-179.91-0.042969-0.015625-0.070313-0.050782-0.11328-0.066406-0.074219-0.027344-0.14844-0.007813-0.22266-0.027344-69.652-19.102-142.45 3.8828-188.9 56.203-3.1055 3.5039-2.793 8.8711 0.71094 11.98 3.4883 3.0977 8.8516 2.7891 11.98-0.71094 3.4297-3.8633 7.0508-7.5117 10.785-11.02l14.418 21.297c-77.84 77.211-43.352 209.24 60.176 240.41 4.5352 1.3672 9.2305-1.2383 10.574-5.6797 1.3516-4.4883-1.1914-9.2188-5.6836-10.57-113.57-34.195-123.28-194.08-11.328-239.79 4.3398-1.7734 6.4219-6.7227 4.6484-11.062-1.7734-4.3477-6.7344-6.4258-11.062-4.6484-12.609 5.1484-24.133 11.969-34.484 20.043l-14.246-21.039c38.352-29.391 88.461-42.082 138.84-31.234l-10.711 31.41c-0.76953 2.2461-0.55469 4.707 0.57031 6.7891 1.1367 2.082 3.0898 3.6016 5.3945 4.1758 56.691 14.23 96.285 65 96.285 123.46 0 48.598-27.5 92.531-70.695 114l-11.77-22.539c24.57-11.996 43.844-33.668 52.43-61.215 1.3906-4.4727-1.1016-9.2305-5.5781-10.621-4.5-1.3828-9.2305 1.1016-10.629 5.5781-11.113 35.68-43.684 59.652-81.027 59.652-87.637 0-117.95-118.16-39.699-159.79v27.945c-42.316 35.625-17.066 104.86 38.184 104.86 32.746 0 59.395-26.645 59.395-59.395 0-20.785-11.121-40.34-29.027-51.031-4.043-2.4141-9.2305-1.0898-11.633 2.9336s-1.0938 9.2344 2.9336 11.633c12.801 7.6484 20.758 21.617 20.758 36.461 0 23.391-19.035 42.426-42.426 42.426-40.754 0-58.324-52.688-24.734-76.871 2.2109-1.5938 3.5195-4.1562 3.5195-6.8867v-38.812c43.941-12.254 88.059 12.316 102.67 53.199 1.5664 4.4062 6.4141 6.7148 10.848 5.1367 4.4062-1.5781 6.7109-6.4336 5.1289-10.848-14.449-40.461-53.004-67.645-95.918-67.645-56.145 0-101.82 45.676-101.82 101.82s45.672 101.82 101.82 101.82c9.9961 0 19.672-1.5039 28.875-4.1992l16.391 31.383c2.043 3.9023 6.75 5.6133 10.828 3.8867 53.551-22.688 88.148-74.848 88.148-132.89 0-63.168-40.793-118.41-100.28-137.4l8.1875-24.016c68.121 22.07 117.55 86.047 117.55 161.42z"/>
 </g>
</svg>
